<?xml version="1.0" encoding="utf-8"?>
<!DOCTYPE svg PUBLIC "-//W3C//DTD SVG 1.0//EN" "http://www.w3.org/TR/2001/REC-SVG-20010904/DTD/svg10.dtd">
<svg version="1.0" xmlns="http://www.w3.org/2000/svg" width="428px" height="428px" viewBox="0 0 428 428" preserveAspectRatio="xMidYMid meet">
 <g fill="#ffffff">
  <path d="M0 214 l0 -214 214 0 214 0 0 214 0 214 -214 0 -214 0 0 -214z m17.60 200.71 c1.04 -0.67 5.89 -5.31 34.02 -32.43 16.43 -15.84 55.34 -53.58 78.58 -76.11 34.94 -33.90 46.48 -45.18 60.19 -58.81 l14.67 -14.55 3.43 0 3.43 0 0 2.05 c0 1.13 -0.50 5.39 -1.09 9.45 l-1.04 7.40 0.92 1 c1.38 1.50 3.80 2.05 5.39 1.21 2.55 -1.34 2.59 -1.67 1.42 -10.24 -0.54 -4.26 -0.96 -8.40 -0.92 -9.20 l0.13 -1.46 2.97 0 2.97 0 17.30 16.93 c18.73 18.35 37.12 36.20 56.17 54.54 6.69 6.44 17.39 16.76 23.82 22.99 6.44 6.23 17.05 16.47 23.62 22.78 6.56 6.31 23.20 22.40 36.99 35.74 29.97 29.01 30.47 29.47 31.60 29.47 1.25 0 3.72 -2.59 3.72 -3.93 0 -1.34 -1 -2.34 -18.81 -19.52 -7.23 -6.98 -19.35 -18.73 -26.96 -26.12 -12.87 -12.50 -32.10 -31.10 -92.79 -89.82 -13.54 -13.12 -25.75 -24.87 -27.08 -26.12 -2.17 -2.01 -2.42 -2.38 -2.30 -3.72 0.13 -1.42 0.25 -1.50 1.67 -1.63 1.30 -0.13 3.68 1 15.88 7.36 15.17 7.94 47.90 24.91 77.03 40 58.72 30.39 71.72 36.99 72.73 36.99 0.67 0 1.59 -0.50 2.34 -1.21 1.63 -1.63 1.63 -3.30 -0.04 -4.93 -0.67 -0.67 -7.02 -4.14 -14.09 -7.77 -7.06 -3.59 -19.06 -9.78 -26.67 -13.71 -7.57 -3.93 -22.53 -11.66 -33.23 -17.18 -10.70 -5.56 -30.64 -15.88 -44.30 -23.03 -13.67 -7.11 -30.01 -15.59 -36.28 -18.85 l-11.41 -5.89 0.13 -1.67 0.13 -1.67 82.17 -0.21 c88.61 -0.21 82.59 -0.08 84.47 -2.30 1.38 -1.59 0.67 -4.10 -1.46 -5.31 -0.71 -0.42 -10.45 -0.59 -43.97 -0.75 l-43.05 -0.21 -0.29 -5.22 c-1.25 -23.87 -11.54 -49.40 -27.21 -67.67 -1.55 -1.84 -1.96 -2.59 -1.96 -3.80 0 -1.42 0.42 -1.92 4.72 -6.10 18.35 -17.76 63.74 -62.70 64.20 -63.57 0.46 -0.92 0.46 -1.30 -0.13 -2.47 -0.84 -1.84 -2.84 -2.88 -4.14 -2.22 -0.88 0.50 -14.09 13.33 -51.83 50.45 -16.18 15.88 -18.06 17.64 -19.31 17.64 -0.84 0 -1.63 -0.33 -2.13 -0.88 -1.50 -1.71 -10.87 -9.03 -15.05 -11.74 -16.55 -10.95 -35.11 -17.30 -55.21 -18.93 l-3.47 -0.29 0 -48.48 c0 -53.33 0.17 -50.03 -2.59 -51.49 -1.34 -0.71 -1.50 -0.71 -2.76 -0.08 -0.71 0.38 -1.67 1.17 -2.05 1.80 -0.71 1.04 -0.75 4.18 -0.88 49.70 l-0.08 48.57 -1.30 0.25 c-0.75 0.13 -2.13 0.25 -3.09 0.25 -1 0 -2.72 0.17 -3.85 0.38 -1.09 0.25 -3.59 0.63 -5.56 0.92 -19.31 2.72 -41.84 13.50 -58.39 28 -1.96 1.71 -2.63 2.05 -3.72 1.96 -1.38 -0.13 -8.44 -6.94 -58.47 -56.43 -7.48 -7.40 -12.12 -11.66 -12.87 -11.83 -2.05 -0.54 -4.81 2.13 -4.31 4.18 0.17 0.59 4.68 5.39 10.83 11.41 59.94 58.98 58.81 57.81 58.81 59.23 0 0.84 -0.33 1.63 -0.88 2.13 -1.59 1.42 -6.48 7.82 -9.28 12.08 -8.74 13.38 -14.75 28 -17.60 42.76 -1.25 6.35 -1.92 12.29 -1.92 16.59 l0 3.13 -42.80 0 -42.76 0 -1.42 0.96 c-0.79 0.50 -1.67 1.46 -1.96 2.09 -0.50 1 -0.46 1.34 0.21 2.47 0.42 0.71 1.42 1.63 2.22 2.05 1.38 0.75 4.26 0.79 83.68 0.79 l82.26 0 0 1.42 c0 0.75 -0.25 1.59 -0.50 1.80 -0.29 0.25 -8.82 4.72 -18.93 9.95 -10.11 5.22 -19.31 10.03 -20.48 10.66 -1.13 0.63 -8.57 4.51 -16.51 8.57 -7.94 4.10 -26.83 13.88 -42.01 21.73 -15.17 7.86 -36.61 18.93 -47.65 24.62 -19.94 10.28 -22.36 11.74 -22.36 13.67 0 1.17 2.59 3.72 3.80 3.72 0.50 0 5.85 -2.51 11.83 -5.60 26.29 -13.46 74.36 -38.29 79.04 -40.79 1.63 -0.88 6.90 -3.59 11.70 -6.06 9.53 -4.89 40.21 -20.77 46.60 -24.16 2.17 -1.13 6.23 -3.26 9.03 -4.72 4.10 -2.17 5.39 -2.67 6.98 -2.67 1.96 0 1.96 0 1.96 1.42 0 1.30 -0.50 1.92 -4.97 6.19 -2.72 2.59 -11.24 10.83 -18.93 18.31 -19.56 19.06 -93.54 90.82 -120.38 116.78 -12.33 11.91 -22.65 22.15 -22.95 22.70 -0.75 1.38 -0.08 3.01 1.67 4.18 1.71 1.13 1.63 1.13 3.01 0.21z m220.65 -1.63 c1.13 -1.25 1.30 -1.76 1.13 -3.01 -0.13 -0.84 -1.46 -9.70 -2.97 -19.69 -1.55 -9.99 -3.09 -20.23 -3.47 -22.78 -0.63 -4.18 -0.79 -4.72 -2.05 -5.94 l-1.34 -1.38 -15.17 0 c-11.24 0 -15.46 0.17 -16.22 0.54 -2.17 1.09 -2.42 1.96 -4.43 15.97 -1.04 7.36 -2.67 18.14 -3.55 23.95 -1.76 11.41 -1.76 11.87 0.33 13.17 1 0.63 3.43 0.67 23.74 0.71 l22.65 0 1.34 -1.55z m-9.82 -73.77 c0.79 -0.96 1.04 -1.63 0.92 -2.38 -0.13 -0.59 -1 -6.27 -1.96 -12.58 -0.92 -6.31 -2.01 -12.08 -2.38 -12.83 -1.21 -2.47 -2.59 -2.76 -11.58 -2.55 -5.10 0.13 -8.32 0.38 -8.90 0.67 -1.55 0.84 -2.09 2.51 -3.05 9.07 -0.50 3.47 -1.34 9.15 -1.92 12.66 -1.04 6.69 -1 7.48 0.63 8.74 0.50 0.38 4.18 0.50 13.92 0.54 l13.21 0 1.13 -1.34z m-6.73 -48.28 c0.84 -0.84 1.09 -1.42 0.96 -2.22 -0.13 -0.59 -0.71 -4.35 -1.30 -8.36 -0.63 -4.01 -1.21 -7.94 -1.34 -8.74 -0.13 -0.75 -0.67 -1.84 -1.21 -2.38 -0.92 -0.92 -1.38 -1 -4.51 -1 -3.30 0 -3.64 0.08 -4.76 1.17 -1.13 1.04 -1.30 1.55 -1.96 6.56 -0.42 3.01 -1.13 7.31 -1.50 9.57 l-0.75 4.14 1.17 1.21 1.17 1.17 6.48 0 6.44 0 1.13 -1.13z m-126.35 -110.01 c0.92 -0.88 1.63 -1.92 1.63 -2.30 0 -0.38 -0.63 -1.34 -1.34 -2.13 -1.17 -1.21 -4.01 -2.51 -17.81 -8.15 -9.03 -3.68 -16.84 -6.77 -17.39 -6.94 -1.38 -0.33 -3.43 0.84 -4.22 2.38 -0.75 1.46 -0.59 2.38 0.75 3.64 0.88 0.84 34.90 15.01 36.20 15.09 0.29 0.04 1.30 -0.67 2.17 -1.59z m241 1.17 c0.63 -0.25 1.55 -0.63 2.01 -0.84 0.46 -0.17 2.63 -1 4.81 -1.84 2.17 -0.88 6.35 -2.55 9.32 -3.80 2.93 -1.25 5.52 -2.26 5.73 -2.26 0.25 0 0.75 -0.17 1.17 -0.42 0.38 -0.21 2.22 -0.96 4.05 -1.67 5.81 -2.26 7.73 -3.34 8.48 -4.89 0.63 -1.30 0.63 -1.46 -0.17 -2.51 -0.46 -0.63 -1.34 -1.50 -1.96 -1.96 l-1.13 -0.84 -7.40 3.01 c-29.55 11.95 -28.46 11.45 -29.63 13.25 -0.59 0.92 -0.63 1.25 -0.13 2.34 0.29 0.71 1.09 1.67 1.80 2.09 1.50 0.92 1.55 0.92 3.05 0.33z m-170.41 -76.45 c0.25 -0.42 0.42 -1.09 0.42 -1.50 0 -0.42 -1.88 -5.18 -4.14 -10.57 -2.30 -5.43 -5.22 -12.54 -6.52 -15.80 -2.63 -6.60 -3.97 -8.36 -6.02 -7.86 -1.21 0.25 -3.39 2.42 -3.39 3.34 0 1.34 13.12 32.43 14.09 33.44 0.59 0.54 1.42 1.04 1.92 1.13 1.04 0.17 3.01 -1 3.64 -2.17z m100.73 1.46 c0.67 -0.33 1.46 -1.04 1.71 -1.55 0.29 -0.50 3.47 -7.98 7.11 -16.59 6.35 -15.13 6.56 -15.67 5.98 -16.84 -1.34 -2.55 -4.05 -3.05 -5.94 -1.04 -0.46 0.50 -2.55 5.06 -4.64 10.11 -2.05 5.06 -5.06 12.29 -6.69 16.05 -2.76 6.56 -2.88 6.94 -2.30 8.07 0.54 1 2.30 2.38 3.22 2.42 0.17 0 0.88 -0.29 1.55 -0.63z"/>
  <path d="M107 219.35 c0.04 -20.23 8.74 -43.72 22.57 -61.15 14.13 -17.72 35.57 -31.60 57.22 -36.95 17.26 -4.31 35.61 -4.51 52.29 -0.63 8.53 1.96 19.23 5.98 26.33 9.86 4.43 2.42 12.96 8.11 17.05 11.45 19.23 15.51 33.19 39.37 37.45 63.99 0.63 3.47 1.50 13.46 1.50 16.97 l0 1.55 -3.47 0 -3.51 0 -0.50 -6.35 c-1.55 -19.39 -8.40 -37.07 -20.61 -53.33 -3.76 -5.02 -11.79 -13.17 -17.05 -17.30 -20.23 -16.01 -46.23 -24.28 -69.38 -22.11 -18.85 1.80 -37.45 8.86 -52.20 19.90 -17.72 13.25 -30.51 31.43 -36.78 52.50 -1.59 5.22 -3.22 13.67 -3.55 18.14 -0.17 1.84 -0.38 4.51 -0.50 5.98 l-0.25 2.59 -3.30 0 -3.30 0 0 -5.10z"/>
 </g>
 <g fill="#936b17">
  <path d="M13.46 415.88 c-1.46 -0.88 -2.59 -3.01 -2.59 -4.76 0 -0.54 0.63 -1.80 1.38 -2.76 0.71 -0.92 8.69 -8.78 17.64 -17.47 18.31 -17.68 103.20 -99.98 124.93 -121.13 7.77 -7.57 16.43 -15.97 19.23 -18.64 3.51 -3.39 4.81 -4.89 4.26 -4.89 -0.46 -0.04 -3.09 1.17 -5.85 2.63 -2.80 1.46 -6.85 3.59 -9.03 4.72 -6.39 3.39 -37.07 19.27 -46.60 24.16 -4.81 2.47 -10.07 5.18 -11.70 6.06 -4.68 2.51 -52.75 27.34 -79.04 40.79 -9.91 5.10 -11.08 5.60 -13.08 5.60 -1.96 0 -2.38 -0.17 -3.64 -1.42 -1.25 -1.25 -1.42 -1.67 -1.42 -3.55 0 -1.71 0.21 -2.34 1.17 -3.34 0.71 -0.79 8.65 -5.10 21.19 -11.58 11.03 -5.68 32.48 -16.76 47.65 -24.62 15.17 -7.86 34.06 -17.64 42.01 -21.73 7.94 -4.05 15.38 -7.94 16.51 -8.57 1.17 -0.63 10.37 -5.43 20.48 -10.66 10.11 -5.22 18.68 -9.78 19.02 -10.07 0.50 -0.50 -11.58 -0.59 -81.67 -0.59 -75.99 0 -82.38 -0.04 -83.72 -0.71 -1.80 -0.84 -3.05 -2.76 -3.05 -4.72 0 -1.96 0.75 -3.34 2.47 -4.47 l1.42 -0.96 42.76 0 42.80 0 0 -3.13 c0 -7.11 1.84 -18.06 4.60 -27.46 4.39 -15.09 14.63 -33.81 23.70 -43.43 l1.42 -1.46 -24.16 -23.78 c-13.29 -13.08 -28.84 -28.38 -34.57 -34.02 -6.31 -6.19 -10.62 -10.74 -10.95 -11.62 -1.38 -3.26 1.17 -6.81 4.76 -6.81 1.09 0.04 2.38 0.25 2.84 0.54 0.79 0.42 22.32 21.53 58.68 57.43 l10.66 10.53 1.09 -0.92 c11.33 -9.36 18.27 -14.04 28.17 -18.89 10.41 -5.10 21.99 -8.86 31.56 -10.20 1.96 -0.29 4.47 -0.67 5.56 -0.92 1.13 -0.21 2.84 -0.38 3.85 -0.38 0.96 0 2.38 -0.13 3.09 -0.25 l1.30 -0.25 0.04 -47.94 c0 -35.99 0.13 -48.28 0.50 -49.36 1.38 -3.97 7.69 -4.47 9.74 -0.75 0.46 0.75 0.54 10.83 0.59 49.57 0 47.40 0 48.57 0.79 48.57 0.42 0 2.72 0.21 5.10 0.42 24.37 2.42 46.60 12.08 65.45 28.38 l3.43 2.93 16.84 -16.59 c37.24 -36.61 51.87 -50.91 52.71 -51.37 2.22 -1.25 5.64 -0.25 6.77 1.96 0.75 1.46 0.79 4.05 0.08 5.31 -0.46 0.84 -8.57 8.86 -52.71 52.29 l-16.26 15.97 1.30 1.59 c16.64 19.64 26.75 44.35 28 68.63 l0.29 5.22 43.05 0.21 c40.84 0.21 43.13 0.25 44.26 0.96 1.21 0.79 2.34 2.97 2.34 4.51 0 1.38 -1.21 3.59 -2.42 4.43 -1.09 0.71 -4.89 0.75 -83.22 0.96 -54.17 0.13 -82.13 0.33 -82.26 0.63 -0.04 0.25 5.02 3.09 11.29 6.31 6.23 3.26 22.57 11.74 36.24 18.85 13.67 7.15 33.60 17.47 44.30 23.03 10.70 5.52 25.66 13.25 33.23 17.18 7.61 3.93 19.60 10.11 26.67 13.71 7.06 3.64 13.42 7.11 14.09 7.77 2.38 2.34 1.96 6.23 -0.84 8.15 -2.84 1.96 2.76 4.60 -76.70 -36.49 -29.17 -15.09 -61.86 -32.06 -77.07 -40 -8.65 -4.51 -14.50 -7.36 -14.71 -7.15 -0.25 0.25 0.54 1.30 2.01 2.63 3.13 2.93 52.54 50.70 119.25 115.36 14.34 13.92 30.43 29.47 35.74 34.61 5.27 5.10 9.95 9.95 10.41 10.74 1.04 2.01 0.63 4.10 -1.21 5.94 -1.21 1.21 -1.67 1.38 -3.51 1.38 -2.63 0 0.29 2.63 -32.85 -29.47 -13.79 -13.33 -30.43 -29.42 -36.99 -35.74 -6.56 -6.31 -17.18 -16.55 -23.62 -22.78 -6.44 -6.23 -17.14 -16.55 -23.82 -22.99 -19.27 -18.52 -37.53 -36.28 -56.17 -54.54 -15.38 -15.05 -17.47 -16.93 -18.77 -17.05 -0.79 -0.08 -1.63 0.04 -1.80 0.21 -0.21 0.21 0.08 4.01 0.75 8.82 1.25 9.45 1.17 10.16 -1.09 11.66 -2.22 1.50 -6.23 1.13 -8.28 -0.79 -1.25 -1.17 -1.25 -2.13 0.08 -11.20 0.59 -3.97 1.04 -7.52 1.04 -7.98 0 -0.67 -0.33 -0.79 -2.17 -0.79 l-2.17 0 -14.67 14.55 c-13.71 13.63 -25.25 24.91 -60.19 58.81 -23.24 22.53 -62.15 60.27 -78.58 76.11 -28.13 27.13 -32.98 31.77 -34.02 32.43 -1.46 1 -3.68 0.96 -5.39 -0.08z m99.14 -195.27 c0.13 -1.46 0.33 -4.14 0.50 -5.98 0.33 -4.47 1.96 -12.92 3.55 -18.14 7.15 -23.95 23.32 -44.93 44.43 -57.68 23.41 -14.17 51.33 -18.56 77.16 -12.12 28.71 7.15 53.29 26.79 66.67 53.37 5.89 11.70 9.24 23.66 10.28 36.78 l0.50 6.35 2.26 0 2.26 0 -0.25 -3.85 c-0.63 -9.74 -1.67 -15.76 -4.18 -24.28 -5.02 -16.84 -13.96 -31.89 -26.37 -44.39 -5.68 -5.68 -9.99 -9.20 -16.89 -13.79 -6.44 -4.26 -10.11 -6.27 -16.30 -8.90 -12.66 -5.43 -24.91 -8.23 -38.49 -8.74 -29.47 -1.13 -59.06 10.91 -80.04 32.52 -6.85 7.11 -11.66 13.58 -16.72 22.57 -7.44 13.29 -12.66 31.81 -12.71 45.02 l0 3.85 2.05 0 2.05 0 0.25 -2.59z"/>
  <path d="M189.26 415.17 c-1.30 -0.79 -2.01 -2.17 -2.01 -3.80 0 -0.63 0.75 -5.94 1.63 -11.79 0.92 -5.85 2.55 -16.68 3.59 -24.03 2.01 -14 2.26 -14.88 4.43 -15.97 0.75 -0.42 5.22 -0.54 17.43 -0.54 l16.47 0 1.34 1.38 c1.25 1.21 1.42 1.76 2.05 5.94 0.38 2.55 1.96 12.79 3.47 22.78 1.55 9.99 2.88 19.44 3.01 20.94 0.17 2.63 0.13 2.84 -1.17 4.26 l-1.34 1.55 -23.91 0 c-21.48 -0.04 -23.99 -0.08 -24.99 -0.71z"/>
  <path d="M198.62 341.06 c-1.38 -1.30 -1.55 -2.76 -0.79 -7.73 0.38 -2.51 1.25 -8.44 1.96 -13.17 0.71 -4.72 1.46 -9.11 1.76 -9.74 0.96 -2.38 1.67 -2.55 11.83 -2.72 10.45 -0.21 11.62 0.04 12.87 2.55 0.63 1.30 4.47 25.12 4.47 27.79 0 0.75 -0.42 1.80 -1.09 2.55 l-1.09 1.30 -14.50 0 c-14 0 -14.55 -0.04 -15.42 -0.84z"/>
  <path d="M205.18 292.20 c-1.46 -1.46 -1.46 -1.63 -0.21 -9.03 0.54 -3.22 1.25 -7.65 1.55 -9.82 0.46 -3.51 0.67 -4.10 1.76 -5.10 1.17 -1.13 1.34 -1.17 6.02 -1.17 4.47 0 4.81 0.04 5.77 1 0.54 0.54 1.09 1.63 1.21 2.38 1.50 9.45 2.76 18.39 2.76 19.44 0 0.84 -0.38 1.67 -1.09 2.42 l-1.13 1.09 -7.69 0 -7.73 0 -1.21 -1.21z"/>
  <path d="M73.98 176.76 c-19.10 -7.77 -19.64 -8.11 -19.64 -11.29 0 -3.64 2.26 -5.64 6.02 -5.27 1.46 0.13 7.23 2.26 18.64 6.94 18.68 7.65 19.23 7.98 19.23 11.58 0 1.71 -0.21 2.13 -1.63 3.55 -2.59 2.63 -2.76 2.59 -22.61 -5.52z"/>
  <path d="M332.20 183.24 c-1.50 -0.79 -2.42 -2.63 -2.42 -4.72 0 -2.97 1.21 -3.80 10.87 -7.73 4.72 -1.92 12.54 -5.10 17.43 -7.11 10.57 -4.26 11.54 -4.43 13.96 -1.96 1.38 1.34 1.63 1.88 1.63 3.34 0 3.51 -1.30 4.60 -8.99 7.57 -1.84 0.71 -3.68 1.46 -4.05 1.67 -0.42 0.25 -0.92 0.42 -1.17 0.42 -0.21 0 -2.80 1 -5.73 2.26 -2.97 1.25 -7.15 2.93 -9.32 3.80 -2.17 0.84 -4.35 1.67 -4.81 1.84 -0.46 0.21 -1.38 0.59 -2.01 0.84 -1.59 0.63 -4.01 0.54 -5.39 -0.21z"/>
  <path d="M161.04 109.22 c-1.96 -0.38 -2.97 -2.30 -9.24 -17.55 -7.82 -19.02 -7.36 -17.72 -6.81 -19.48 0.75 -2.26 2.22 -3.34 4.76 -3.55 3.43 -0.29 4.26 0.67 7.19 7.98 1.30 3.26 4.26 10.41 6.52 15.84 2.30 5.48 4.31 10.57 4.43 11.33 0.25 1.76 -0.67 3.64 -2.34 4.85 -1.13 0.84 -2.42 1 -4.51 0.59z"/>
  <path d="M262.40 108.42 c-1.34 -0.71 -2.42 -2.59 -2.42 -4.18 0 -0.63 1.55 -4.72 3.39 -9.11 1.88 -4.39 4.89 -11.66 6.73 -16.13 1.80 -4.47 3.76 -8.61 4.31 -9.15 1.17 -1.17 4.93 -1.71 6.44 -0.88 1.25 0.67 2.55 2.88 2.55 4.35 0 1 -11.66 29.47 -13.63 33.35 -1.17 2.22 -4.89 3.13 -7.36 1.76z"/>
 </g>
</svg>